# xmcd CD database file
#
# Track frame offsets:
#	150
#	16192
#	33418
#	46627
#	64298
#	82355
#
# Disc length: 1331 seconds
#
# Revision: 0
# Processed by: cddbd v1.5.2PL0 Copyright (c) Steve Scherf et al.
# Submitted via: CDex 1.51
#
DISCID=46053106
DTITLE=Bluesmail - Demo CD
DYEAR=2013
DGENRE=Blues
TTITLE0=Talk To Me
TTITLE1=Iko Iko
TTITLE2=Schwing Deine Hüften
TTITLE3=Mensch Inge
TTITLE4=Cheryl, du redest zu viel
TTITLE5=Flip, Flop und Fly
EXTD=YEAR: 2013
EXTT0=
EXTT1=
EXTT2=
EXTT3=
EXTT4=
EXTT5=
PLAYORDER=
